<?xml version="1.0" standalone="no"?>
<!DOCTYPE svg PUBLIC "-//W3C//DTD SVG 20010904//EN"
 "http://www.w3.org/TR/2001/REC-SVG-20010904/DTD/svg10.dtd">
<svg version="1.0" xmlns="http://www.w3.org/2000/svg"
 width="347.000000pt" height="347.000000pt" viewBox="0 0 347.000000 347.000000"
 preserveAspectRatio="xMidYMid meet">
<metadata>
Created by potrace 1.14, written by Peter Selinger 2001-2017
</metadata>
<g transform="translate(0.000000,347.000000) scale(0.100000,-0.100000)"
fill="#000000" stroke="none">
<path d="M1657 3344 c-1 -1 -40 -5 -87 -9 -106 -8 -286 -46 -355 -75 -11 -4
-47 -18 -80 -31 -33 -12 -66 -27 -72 -32 -7 -5 -13 -7 -13 -3 0 3 -23 -8 -50
-24 -28 -17 -53 -30 -56 -30 -3 0 -32 -18 -64 -40 -32 -22 -63 -40 -69 -40 -5
0 -11 -3 -13 -7 -2 -5 -21 -21 -43 -38 -117 -86 -256 -232 -335 -350 -19 -27
-37 -52 -41 -55 -4 -3 -35 -58 -69 -124 -63 -120 -145 -346 -153 -423 -3 -23
-7 -46 -10 -50 -8 -12 -19 -146 -21 -248 -4 -143 9 -252 49 -445 9 -43 62
-185 96 -258 21 -46 39 -86 39 -88 0 -3 9 -17 19 -32 10 -15 40 -59 65 -99 94
-148 234 -296 376 -398 30 -22 56 -43 58 -47 2 -5 8 -8 13 -8 5 0 34 -17 66
-37 51 -32 231 -122 258 -128 6 -1 17 -5 25 -8 43 -16 179 -56 210 -61 19 -3
46 -8 60 -11 64 -14 136 -19 265 -19 218 0 326 17 530 86 92 31 277 118 306
144 8 8 19 14 22 14 16 0 119 77 236 175 30 25 93 91 122 129 13 16 33 40 46
54 32 34 146 202 137 202 -4 0 0 8 9 18 12 13 83 153 92 182 1 3 4 12 8 20 18
46 57 170 62 197 3 18 12 61 20 95 31 136 37 414 11 533 -2 11 -11 52 -19 90
-8 39 -21 90 -28 115 -16 55 -14 51 -23 75 -4 11 -17 45 -28 75 -32 85 -97
207 -161 302 -52 78 -176 227 -223 270 -11 9 -32 28 -47 42 -78 72 -230 173
-347 231 -216 108 -454 165 -708 170 -45 0 -83 0 -85 -1z"/>
</g>
</svg>
