<svg xmlns="http://www.w3.org/2000/svg" width="242" height="48" viewBox="0 0 242 48">
    <g fill="#F9423A" fill-rule="evenodd">
        <path d="M90.432 22.59H84.39v2.493c0 6.083 4.994 10.92 11.887 10.92 7.092 0 12.186-4.438 12.186-10.92 0-6.931-5.144-9.823-12.086-11.22-2.597-.498-4.445-1.694-4.445-3.59 0-1.994 1.548-3.489 4.345-3.489 2.847 0 4.445 1.744 4.445 3.74v.747a1 1 0 0 0 .999.997h5.044a1 1 0 0 0 1-.997v-.748c0-5.883-4.796-10.52-11.488-10.52-6.593 0-11.438 4.637-11.438 10.52 0 6.433 4.945 9.174 11.188 10.57 3.746.848 5.195 1.846 5.195 3.99 0 2.342-1.948 4.088-4.945 4.088-3.097 0-4.845-1.795-4.845-4.088v-1.496c0-.549-.45-.997-.999-.997M124.847 9.975c-1.497 0-2.297.35-2.996.598-.95.349-1.498-.2-1.498-1.048V1.05c0-.548-.45-.997-1-.997h-5.493v34.405c0 .548.45.997.999.997h4.495a1 1 0 0 0 .999-.997V19.249c0-1.646 1.348-2.992 3.746-2.992 2.396 0 3.746 1.346 3.746 2.992v15.208a1 1 0 0 0 .998.997h4.495a1 1 0 0 0 .999-.997V19.249c0-5.235-4.245-9.274-9.49-9.274M149.922 9.975c6.043 0 9.989 3.24 9.989 9.024v15.458c0 .548-.45.997-1 .997h-2.497c-.299 0-.499-.1-.699-.35-.3-.398-.35-.997-.998-.997-.9 0-2.298 1.896-5.994 1.896-5.794 0-9.39-2.992-9.39-8.227 0-3.44 2.848-7.78 8.59-7.78h5.095c.3 0 .5-.198.5-.498v-.797c0-2.045-1.648-3.042-3.846-3.042-1.049 0-3.446.3-3.446 1.894 0 .848-.45.948-1.349.948h-4.595v-.997c0-3.94 3.646-7.529 9.64-7.529zm3.346 15.307h-5.294c-2.148 0-2.547 1.746-2.547 2.494 0 1.845 1.498 2.641 3.296 2.641 2.847 0 5.045-.847 5.045-3.44v-1.196c0-.3-.2-.499-.5-.499zM179.088 26.728c-.15 1.746-1.348 2.992-3.795 2.992-2.398 0-3.646-1.346-3.746-2.992-.15-1.995-.15-5.485 0-7.48.1-1.645 1.348-2.991 3.746-2.991 2.447 0 3.646 1.097 3.795 2.992.15 1.994.15 5.484 0 7.479M184.533.052h-5.525l.03 9.474c0 1.097-.748 1.346-1.498 1.048-.699-.3-1.498-.599-2.996-.599-5.245 0-9.09 4.04-9.49 9.274-.15 1.994-.15 5.484 0 7.479.4 5.235 4.245 9.275 9.49 9.275 3.696 0 4.095-1.696 5.544-1.696.499 0 .948.449 1.248.798.2.199.4.35.7.35h2.497a1 1 0 0 0 .999-.998V1.049c0-.548-.45-.997-1-.997M197.27 26.728c-.3-1.995-.3-5.485 0-7.48.3-1.894 1.348-2.79 3.845-2.79 2.548 0 3.646 1.145 3.896 2.79.3 1.995.3 5.485 0 7.48-.25 1.646-1.348 2.792-3.896 2.792-2.497 0-3.595-1.046-3.845-2.792m14.234 0c.25-1.995.25-5.485 0-7.48-.65-5.234-4.246-9.273-10.389-9.273-6.092 0-9.689 4.04-10.338 9.274-.25 1.994-.25 5.484 0 7.479.65 5.235 4.246 9.275 10.388 9.275 6.093 0 9.69-4.04 10.339-9.275M219.528 34.706c.1.498.499.748.949.748h5.443c.45 0 .85-.25.95-.748l1.398-7.63c.05-.348.6-.348.7 0l1.648 7.63c.099.498.499.748.948.748h5.445c.448 0 .848-.25.948-.748l3.946-23.036c.1-.498-.15-1.147-.95-1.147h-4.694c-.45 0-.899.2-.95.748l-1.647 12.964c-.05.249-.5.3-.6 0l-1.847-7.48c-.15-.547-.5-.747-.95-.747h-3.395c-.45 0-.85.2-.95.747l-1.598 7.48c-.05.249-.55.3-.6 0l-1.647-12.964c-.05-.549-.5-.748-.95-.748h-5.845s.102.649.202 1.147l4.046 23.036z"/>
        <g>
            <path d="M9.588 15.597a.822.822 0 0 0 1.154.122l5.43-4.376a.818.818 0 0 0 .122-1.152l-2.063-2.552a.822.822 0 0 0-1.154-.122l-5.43 4.376a.818.818 0 0 0-.123 1.153l2.064 2.55zM7.673 17.144L5.608 14.59a.822.822 0 0 0-1.155-.122L1.125 17.15A2.944 2.944 0 0 0 0 19.458c0 .711.259 1.399.726 1.933l.15.173c.138.157.359.41.584.664a.822.822 0 0 0 1.134.093l4.958-4.027a.818.818 0 0 0 .121-1.15M12.46 23.891c-1.51-.335-2.967-1.046-4.411-2.156a.816.816 0 0 0-1.015.026l-2.58 2.14a.823.823 0 0 0 0 1.264c2.28 1.9 4.669 3.077 7.205 3.585.466.093.917-.22 1.025-.994l.413-2.955a.816.816 0 0 0-.637-.91M26.39 4.919l6.972-.001a.82.82 0 0 0 .82-.82V.82a.82.82 0 0 0-.82-.82h-7.208a.82.82 0 0 0-.82.838l.235 3.28c.011.445.375.8.822.8M18.211 8.646a.822.822 0 0 0 1.155.122s3.54-2.842 3.639-2.911c.38-.265.463-.468.4-1.012l-.422-3.559c-.166-.446-.69-.686-1.11-.462-1.135.604-5.6 4.119-5.6 4.119a.818.818 0 0 0-.124 1.153l2.062 2.55zM54.582 14.723h5.762a.82.82 0 0 0 .821-.82v-3.278a.82.82 0 0 0-.821-.82h-5.762a.82.82 0 0 0-.821.82v3.279c0 .452.368.82.821.82M21.632 23.258a.815.815 0 0 0-1.053-.367c-1.387.623-2.926 1.01-4.591 1.157a.815.815 0 0 0-.738.849l.14 3.278c.02.469.43.821.897.783 2.338-.19 4.514-.748 6.49-1.663a.824.824 0 0 0 .387-1.13l-1.532-2.907zM69.577 20.566l-3.136-.986a.82.82 0 0 0-1.013.495c-.571 1.53-1.352 2.825-2.329 3.863a.818.818 0 0 0-.014 1.113l2.21 2.436a.825.825 0 0 0 1.197.024c1.558-1.59 2.77-3.56 3.61-5.877a.824.824 0 0 0-.525-1.068M61.385 26.288a.82.82 0 0 0-1.067-.324c-.482.23-.995.427-1.53.588-1.247.373-2.602.623-4.217.775a.82.82 0 0 0-.74.874l.235 3.27c.033.46.44.801.9.759 1.973-.183 3.655-.494 5.236-.968.872-.26 1.707-.591 2.494-.985a.822.822 0 0 0 .34-1.146l-1.651-2.843zM31.075 17.054l-3.151-.984a.818.818 0 0 0-.991.443 13.32 13.32 0 0 1-3.341 4.457.82.82 0 0 0-.12 1.118l1.993 2.61a.826.826 0 0 0 1.187.13 18.25 18.25 0 0 0 4.936-6.678.817.817 0 0 0-.513-1.096M71.312 12.357A2.94 2.94 0 0 0 68.4 9.805h-4.143a.82.82 0 0 0-.82.82v3.278c0 .453.366.82.82.82h2.206c-.02.47-.063 1.477-.149 2.11a.823.823 0 0 0 .667.924l3.234.58a.822.822 0 0 0 .959-.69c.186-1.31.23-2.854.23-3.599 0-.645-.032-1.23-.092-1.691M47.219 5.92a.823.823 0 0 0-1.144.029l-2.313 2.36a.819.819 0 0 0 .012 1.16l5.141 5.02a.82.82 0 0 0 .574.234h1.126a.82.82 0 0 0 .82-.82v-3.739a.817.817 0 0 0-.263-.602L47.219 5.92zM50.6 27.525l-.877.018c-1.697.033-3.886.067-5.569.248a.815.815 0 0 0-.712.928l.458 3.249a.815.815 0 0 0 .888.7c1.428-.147 3.412-.177 5.032-.209l.915-.018a.82.82 0 0 0 .8-.843l-.094-3.278a.822.822 0 0 0-.841-.795M44.286 3.087l-1.05-1.025-.158-.112A9.929 9.929 0 0 0 37.337.122h-.003a.688.688 0 0 0-.688.687v3.543c0 .38.308.687.688.687.984 0 1.93.284 2.748.822l.759.74A.822.822 0 0 0 42 6.59l2.297-2.343a.819.819 0 0 0-.012-1.159M41.364 32.51l-.173-1.754-.145-1.631a.839.839 0 0 0-.952-.76c-2.712.34-6.383 1.744-8.29 5.495-.294.578.221 1.22.856 1.082a6.276 6.276 0 0 1 4.004.451c.393.184.86.045 1.118-.303.933-1.256 2.125-1.464 2.97-1.689a.835.835 0 0 0 .612-.891M36.235 42.363l-2.242 2.256-2.243-2.256a1.603 1.603 0 0 1 0-2.256 1.579 1.579 0 0 1 2.243 0 1.578 1.578 0 0 1 2.242 0c.62.623.62 1.634 0 2.256m1.192-4.168a4.81 4.81 0 0 0-3.434-1.432 4.811 4.811 0 0 0-3.435 1.432c-1.893 1.906-1.893 4.835 0 6.74l3.227 2.978a.293.293 0 0 0 .415 0l3.226-2.978c.918-.923 1.423-1.979 1.423-3.284a4.87 4.87 0 0 0-1.422-3.456"/>
        </g>
    </g>
</svg>
