<?xml version="1.0" encoding="utf-8"?>
<!-- Generator: Adobe Illustrator 21.1.0, SVG Export Plug-In . SVG Version: 6.00 Build 0)  -->
<svg version="1.1" id="Layer_1" xmlns="http://www.w3.org/2000/svg" xmlns:xlink="http://www.w3.org/1999/xlink" x="0px" y="0px"
	 viewBox="0 0 139.8 93.4" style="enable-background:new 0 0 139.8 93.4;" xml:space="preserve">
<style type="text/css">
	.st0{fill:#005C42;}
	.st1{clip-path:url(#SVGID_2_);fill:#FFFFFF;}
</style>
<rect y="-0.2" class="st0" width="139.9" height="93.6"/>
<g>
	<defs>
		<rect id="SVGID_1_" width="139.8" height="93.4"/>
	</defs>
	<clipPath id="SVGID_2_">
		<use xlink:href="#SVGID_1_"  style="overflow:visible;"/>
	</clipPath>
	<path class="st1" d="M60.7,84.6c0.9-0.3,1.4-1.3,1.1-2.2c-0.3-0.9-1.3-1.4-2.2-1.1c-0.9,0.3-1.4,1.3-1.1,2.2
		C58.8,84.4,59.8,84.9,60.7,84.6"/>
	<path class="st1" d="M92.5,84.6c0.9-0.3,1.4-1.3,1.1-2.2c-0.3-0.9-1.3-1.4-2.2-1.1c-0.9,0.3-1.4,1.3-1.1,2.2
		C90.6,84.4,91.6,84.9,92.5,84.6"/>
	<path class="st1" d="M130.8,84.6c0.9-0.3,1.4-1.3,1.1-2.2c-0.3-0.9-1.3-1.4-2.2-1.1c-0.9,0.3-1.4,1.3-1.1,2.2
		C128.9,84.4,129.8,84.9,130.8,84.6"/>
	<path class="st1" d="M36.8,55.8c0-3.8-1.7-4.1-4.4-4.1v-1l8.8,0l0,28.2c0,2.9,0.4,3.2,3.4,3.2H48c4.3,0,5.5-1.2,6.6-5.3h1.2
		L53.8,84l-16.9,0L36.8,55.8z"/>
	<path class="st1" d="M98.5,55.8c0-3.8-1.6-4.1-4.4-4.1v-1l8.8,0l0,14.6l10-10.6c0.6-0.7,1.2-1.3,1.2-1.8c0-1.1-1-1.2-2.9-1.2v-1
		h11.6v1c-2.6,0-4.5,0.7-7.1,3.4l-9.3,10.2L116.8,78c2.1,2.7,4.7,5.4,8.1,5.4v0.6h-3.8c0,0-3.9-0.1-5.9-2.2
		c-0.4-0.4-1.6-1.4-2.7-2.8l-9.5-11.8H103V79c0,3.8,1.6,4.1,4.4,4.1v1l-8.8,0L98.5,55.8z"/>
	<path class="st1" d="M85,77.4c-0.7,3.5-2.3,4.7-6.1,4.7H74c-2.5,0-2.8-0.3-2.8-4.2V67.6h4.4c3.4,0,4.9,0.7,4.9,3.5h0.6v-9.1h-0.6
		c0,3.4-1.5,3.7-4.9,3.7h-4.4v-8.7c0-3.6,0.1-4.2,2.8-4.2l4,0c3.6,0.1,5.1,1.3,5.8,4.6h1l-0.3-6.6H73.1l0,0H62.5v1
		c2.7,0,4.4,0.4,4.4,4.1l0,28.2l18.8,0l0.3-6.6H85z"/>
</g>
</svg>
